<?xml version="1.0" encoding="UTF-8"?>
<svg id="Variations" xmlns="http://www.w3.org/2000/svg" version="1.1" viewBox="0 0 1199.4 1140.7">
  <!-- Generator: Adobe Illustrator 29.3.1, SVG Export Plug-In . SVG Version: 2.1.0 Build 151)  -->
  <defs>
    <style>
      .st0 {
        fill: #f2adc4;
      }

      .st1 {
        fill: #388022;
      }

      .st2 {
        fill: #ee8a34;
      }

      .st3 {
        fill: #004cff;
      }

      .st4 {
        opacity: .3;
      }

      .st4, .st5 {
        fill: #fff;
      }

      .st6 {
        fill: #760088;
      }

      .st7 {
        fill: #73d5ec;
      }

      .st8 {
        fill: #fbec4f;
      }

      .st9 {
        fill: #262626;
      }

      .st10 {
        fill: #6dccc8;
      }

      .st11 {
        fill: #e33222;
      }

      .st12 {
        fill: #603917;
      }
    </style>
  </defs>
  <g id="LGBT">
    <g id="BACKGROUND">
      <path class="st5" d="M615.2,1083c-9.6,0-18.6-1.2-27.3-3.8-1-.3-2-.7-2.8-1.3l-47.3-29.9c-1.6-1-2.9-2.4-3.8-4.1-1-1.9-2.2-3.4-3.6-5.3-1.4-1.9-3-4-4.8-6.9-.3-.4-.6-.9-.9-1.4-.1-.2-.2-.4-.4-.7l-.3-.5c-13-21.8-87.4-101.1-115-129.9-2.4-2.5-3.5-6-3-9.4,2.3-15.8,26-56.3,35.9-72.8l-6-11.5c-.6-.8-1.2-1.5-1.7-2.2-5.7,2.5-14.5,6.9-21.6,11.3-6.3,3.9-11,6.2-16.2,6.2-11.4,0-15.2-9.9-18.9-19.4-1.4-3.5-3-7.9-5.3-13-4-9-12.5-46.1-18.4-73.4l-253.7,53.6c-.8.2-1.6.2-2.3.2-4.7,0-9-3-10.6-7.6-1.9-5.4.6-11.3,5.6-13.8l244.8-121.5c-1-10.6-3.7-20.2-5.7-26.3,0,0-271.7.4-271.7.4-5.7,0-10.5-4.3-11.2-9.9-.7-5.7,3-10.9,8.5-12.3l255.3-62.3c1.6-17.3,5-33.8,7.3-43.3l-230.2-134.2c-4.9-2.9-6.9-9-4.7-14.2,1.8-4.2,5.9-6.8,10.3-6.8s2.2.2,3.3.5l260,78.5c13.5-14.3,30.3-27,40-34l-110-236c-2.4-5.1-.6-11.2,4.1-14.2,1.9-1.2,4-1.8,6.1-1.8,3.2,0,6.4,1.4,8.6,4l176.7,207.1c17.4-4.3,35.7-6.4,54.5-6.4s13.4.3,18.1.7l71.6-245.5c1.4-4.9,5.9-8.1,10.8-8.1s1,0,1.6.1c5.5.8,9.7,5.5,9.7,11.1l1.6,261.8c20.1,6.1,42.8,19.8,53.6,26.7l203.8-133.9c1.9-1.2,4-1.9,6.2-1.9,3.1,0,6.1,1.3,8.3,3.7,3.7,4.1,3.9,10.3.4,14.6l-143.5,178.8c6.7,6.9,13.6,15.8,18.1,21.8l255-47c.7-.1,1.4-.2,2-.2,4.7,0,9.1,3,10.7,7.6,1.8,5.3-.5,11.1-5.5,13.7l-213.7,110.6c33.9,70.1,24.1,132.5,19.7,151.8,19.2,24.4,38.2,69.2,43.4,83.9,6.3,18,8.4,35.7,5.6,47.3-2.3,9.4-9,18.4-20.7,27.4-1,.8-1.8,1.5-2.6,2.2l57.5,114.5c1.7,3.4,1.6,7.4-.3,10.6-1.9,3.3-5.2,5.4-9,5.7-19.4,1.4-75.8,12.4-111.1,24.3-23.1,7.8-89,38.6-143.3,65-1,.7-2.3,1.6-3.5,2.5-4.6,3.4-7.3,5.3-10.2,6.3-9.9,3.5-18.8,6-27.1,7.9-1.2.3-2.4.5-3.6.8-.9.2-1.9.4-2.8.6-.4,0-.7.2-1.1.2-.4,0-.8.1-1.2.2-.1,0-1.5.2-1.5.2-1.1.2-2.2.4-3.3.5-1.4.2-2.7.4-4,.5,0,0-.8,0-.8,0-.6,0-1.2.1-1.7.2l-1.7.2c-.2,0-.5,0-.6,0l-3.1.2c-.6,0-1.2,0-1.8,0-.3,0-.6,0-.8,0s-.1,0-.2,0c-.4,0-.9,0-1.3,0h-1.4Z"/>
      <path d="M888.9,831.3c6.9-5.3,14.6-12.6,16.6-21.1,2-8.5.8-23.5-5.3-41-6.1-17.5-26.8-64.4-45.1-84.8,0,0,22.8-75.7-22.5-159.5l223.6-115.8-262,48.3s-18.7-26.4-28.7-32.9l150.2-187.1-210,138s-38.5-26.7-64.8-31.4l-1.7-270.6-74.3,254.6s-39.6-6.6-84.7,6.2l-181.3-212.5,114,244.7s-31.4,20.4-50.7,42.9l-266.9-80.5,237.5,138.4v.2c0,0-8.2,29.2-9.6,57.5l-263.3,64.2,279.6-.4h0s9.1,20.7,9.6,44.3l-251.5,124.8,264.7-56c2.8,13.2,15.4,72,20,82.2,11.1,24.9,8.1,31.2,24.2,21.2,11.3-7,28.3-14.9,31-14.9s5.1,5.7,7.8,9.3l9.4,18s-35.2,57.3-37.7,74c0,0,100.1,104.2,116.5,131.9.1.2.2.4.4.6.2.3.4.7.5,1h0c3.6,5.8,6.5,8.5,9.2,13.4l47.3,29.9c8,2.3,16.2,3.4,25,3.3.7,0,1.3,0,2,0,0,0,.1,0,.2,0,.7,0,1.3,0,1.9,0,1,0,2.1-.1,3.1-.2.7,0,1.3-.1,2-.2.7,0,1.5-.1,2.2-.2,1.2-.1,2.5-.3,3.8-.5,1-.1,1.9-.3,2.9-.5.5,0,.9-.1,1.4-.2,0,0,0,0,.1,0,.4,0,.9-.1,1.3-.2.1,0,.2,0,.4,0,1-.2,1.9-.3,2.9-.6,1.2-.2,2.4-.5,3.6-.8,8.1-1.8,16.7-4.4,26-7.6,2.1-.7,7.9-5.5,11.6-8,25.1-12.2,115.5-55.8,145.4-65.9,34.9-11.8,92.2-23.4,113.9-24.9l-60.7-120.9s2.1-4.4,9-9.7Z"/>
    </g>
    <g id="COLORS">
      <path class="st0" d="M442.4,474.4c-4.6,2.3-9.4,5-14.3,8.1-.4-1.3-1-3.2-1.7-5.5-.8-2.5-1.7-5.5-2.8-9,0,0,0-.1,0-.2,0,0,0,0,0-.1-5.5-17-14.2-43-21.6-59.9,5.7-7.4,10.4-13.3,18.1-16.2,6.2,4.1,19.8,56.8,22.1,79.6,0,0,0,.4,0,.4,0,.5.2,2.3.3,2.7Z"/>
      <path class="st5" d="M466.8,365.9s0,0,0,0c-13.3,3.1-26.9,11.4-28.8,12.5,0,0,0,0-.1,0,0,0,0,0,0,0,22,42.2,23.6,80.8,23.7,87.7,0,0,6.7-2.9,18.6-6.3,4.5-34.3.4-65.1-13.4-94Z"/>
      <path class="st11" d="M522.5,358.9c-.1-1-.2-2-.3-3-6.4-2-12.2-2-18.1-.8-.2,0-.4.1-.7.1-.6.1-1.3.3-1.9.5-.2,0-.3.1-.5.1-.8.2-1.5.5-2.3.7.2,0,.4-.2.6-.2-.2.1-.5.2-.7.3-.7.2-1.4.4-2.1.7-.6.2-1.2.4-1.8.6-.2,0-.4.2-.6.2-1.6.6-2.5,1-2.5,1,9.4,29.9,12.4,79.8,13.1,95.1,7-1.2,14.6-2.3,22.9-3,0-12.5-.3-25.4-.9-38.9-1.3-24-3.4-45.8-4.2-53.5Z"/>
      <path class="st2" d="M574.1,355.7c-7-1.4-17.1-1.4-23-1.3-1.4,0-2.5,0-3.4.1-.3,0-.6,0-1,0-.1,0-.2,0-.3,0,2,30.6,4.8,65.3,2.3,95.6,8.2,0,16.9.2,25.9.9l6.3-92.7c-2.3-1.2-4.6-2.1-6.9-2.7Z"/>
      <path class="st8" d="M606,364.6c-.1,0-.3.2-.5.3-2.9,26-5.7,51.1-10.5,75.6-.8,4.3-1.7,8.5-2.7,12.7,9,1.4,18.2,3.2,27.7,5.7,1.3-3.8,2.7-9.7,4.3-16.6,5.5-24.4,12-61.6,12.7-66.1,0-.1,0-.2,0-.3,0,0,0,0,0-.1l-30.3-11.5c-.2.1-.5.2-.7.3Z"/>
      <path class="st3" d="M704.2,411.7c-.3,0-.6,0-.9,0-.5,1.8-2.4,8.4-5,16.9-3.6,12.7-7.5,25.2-12,37.5-2.5,7.2-4.8,13.1-6.4,16.2,5.4,2.9,10.9,6,16.3,9.4l1.6.9,29-60.1c-4-7.7-18.8-18.2-22.7-20.9Z"/>
      <path class="st6" d="M729.1,513.6c10.6-17.1,20.8-33.6,31.2-50.5-.3-.5-.6-1.1-.9-1.7-3.6-6.1-10.9-13.3-14.8-17.1-.7-.3-1.4-.7-2.2-1-.2-.1-.5-.2-.7-.3-3.5,8.5-24,52.2-27.8,60.3l15.1,11.1.3-.6c-.1,0-.2-.2-.3-.3Z"/>
      <path class="st7" d="M388.1,422.2c0,0,0,0,0,0,0,0-.2,0-.3,0-6.6,2.3-17,17.9-17,17.9l16.1,30.7c0,0,.1,0,.2,0,0,.2,0,.4,0,.7,0,0,0,0,0,0,2,4.6,3.8,9.2,5.5,13.4,0,0,0,0,0,0,0,0,0,0,0,.1.3.7.5,1.4.8,2.1,3.4,8.8,5.9,16.3,7.2,20.6,4.1-4.3,8.3-8.2,12.4-11.7.8-.7,1.5-1.3,2.3-1.9-5.2-31.9-26.8-71.4-27.3-71.7Z"/>
      <path class="st1" d="M658.8,385.2c-2.6,29.3-20,78.9-20,78.9l3.7,1.8c6.2,2.2,12.6,4.8,18.9,7.6l24.1-73.7c-9.5-8.6-26.7-14.6-26.7-14.6Z"/>
      <path class="st12" d="M360.5,457.1c0,0,0,0,0,0,0,0-.1,0-.2,0-5.3,2.3-11.2,17.8-11.2,17.8l13.3,23.3c0,0,.1,0,.2,0,0,.2,0,.4,0,.5,0,0,0,0,0,0,1.9,3.8,3.7,7.5,5.3,11,0,0,0,0,0,0,0,0,0,0,0,0,.3.6.5,1.2.8,1.7,3.3,7.3,5.7,13.4,7.1,17,3.1-3.8,6.3-7.4,9.5-10.6.6-.6,1.2-1.2,1.7-1.7-6.1-26.6-26.1-58.9-26.5-59Z"/>
      <path class="st9" d="M343.9,495.8c0,0,0,0,0,0,0,0-.1,0-.2,0-5.3,2.3-7.7,21.3-7.7,21.3l9.7,19.7c0,0,.1,0,.2,0,0,.2,0,.4,0,.5,0,0,0,0,0,0,1.9,3.8,5.4,9.3,7.1,12.8,0,0,0,0,0,0,0,0,0,0,0,0,.3.6.5,1.2.8,1.7,3.3,7.3.5,1.1,1.8,4.6,3.1-3.8,6.3-10.9,9.5-14.2.6-.6-.6.6,0,0-6.1-26.6-20.8-46.5-21.2-46.7Z"/>
      <path d="M757.9,540.2c10.6-17.1,21.7-25.5,32.1-42.3-.3-.5-.6-1.1-.9-1.7-3.6-6.1-10.9-13.3-14.7-17.1-.7-.3-1.4-.7-2.2-1-.2-.1-.5-.2-.7-.3-3.5,8.5-23.9,40.1-27.7,48.1l14,15.1.3-.6c-.1,0-.2-.2-.3-.3Z"/>
    </g>
    <g id="GREEN_FACE">
      <path class="st10" d="M470.4,532.5s41.5,19.2,69.3,23.9c27.8,4.7,72.2,9.8,72.2,9.8,0,0,1.2,16.3-7.7,15.9-8.8-.4,0,0,0,0,0,0-9.8-4.6-20.9-5.1-11.2-.5-31.7,3.7-41.9,7s-48.6,15.1-48.6,15.1c0,0,4.9,19.1,3.7,41.1-1.2,22,3.6,44.9,3.6,44.9l3.9-46.5,27.8,10.1s2.5-8.1,12.4-17.7c9.8-9.5,11.6-11.4,11.6-11.4,0,0,2.4-1.5,17.3,1.9,14.9,3.3,16,2.2,19.7,1.5,3.7-.7,6.1-2.8,6.1-2.8,0,0,2.7,1.5,2.4,3.7-.3,2.1-1,2.8-.8,4.9.2,2,.7,2.5.7,2.5l16.3-6.7s17.2-10.1,27.8-1c10.6,9.1,13.7,12.7,13.7,12.7l-41.3,53.3,21.8,110.7-50.1,27.6,8.6-21.6s-29.5,31-50.2,39.6c-20.7,8.6-43.6,7.9-49.8,3.4-6.2-4.4,0,0,0,0,0,0-4,5.1-7.3-.2-3.3-5.3-21-33.1-26.4-43-5.4-9.9-17.6-34.6-18.6-38-1-3.4-3.8-14.2-3.6-28.3.2-14.1-1.3-26.6-1.3-26.6l-3.1-12.4-2.7-6.8-24.3-22.3s-11.5-14.3-9.6-26.4c1.9-12.1,0,0,0,0,0,0,15.9-25.6,20.9-37s42.3-59.7,48.4-75.8"/>
      <path class="st10" d="M695.1,941.3c-2.8,38.7-4.8,58.5-11.5,96.3,0,.6,0,7.8,0,8.4,0,0,.2,5.2.2,5.2-2.8,1.1-11.4,8.5-14.1,9.4-9.3,3.2-17.9,5.8-26,7.6-1.2.3-2.4.5-3.6.8-1,.2-1.9.4-2.9.6-.1,0-.3,0-.4,0-.4,0-.9.2-1.3.2,0,0,0,0-.1,0-.5,0-.9.1-1.4.2-1,.2-1.9.3-2.9.5-1.3.2-2.5.4-3.8.5-.7,0-1.5.2-2.2.2-.7,0-1.3.1-2,.2-1,0-2.1.1-3.1.2-.7,0-1.3,0-1.9,0,0,0-.1,0-.2,0-.7,0-1.3,0-2,0-8.8,0-17.1-1-25-3.3l-47.3-29.9c-3.1-5.5-6.4-8.4-10.8-16.1,3.7-33.8,3.9-71.2,4.8-107,33.6,20.9,66.4,41.3,99.3,61.4,3.1,1.9,5.5,7.3,10.7,4.1h0s0,0,0,0c1.4-1.5,2.9-2.9,4.3-4.4,2.5-2.5,6.3-6.2,13-12.8l4.8-4.3c7.8-6.8,16-12.9,25.1-18.1Z"/>
      <path class="st10" d="M929.6,962.8c-9.3.8-27.5,3.7-30.5,4.3-37.1-25.7-59.4-61.1-76.7-99.9-4.5-10-8.6-20.3-12.6-30.6-19.6-51.3-32.7-103.6-18.4-158.9-7.5,1.6-5.9,8.7-7.7,13.4-7.4,19.8-26.6,29.8-47,24.2-1.8-13.3-.9-18.8,6-33.8,8.6,4,9.9,15.2,19.2,18.9,16.2-2,17.2-15.5,20.3-29,5.5,1.7,24.6,5.4,28,8,8.4,17.7,26.6,27.1,36.5,43.7-5.5,2.5-10-3.3-16.4-2.3,8.7,14.3,24.6,21.5,33.8,35.9-8.8,1-13.5-6.1-22-6.7,9.6,10.7,20.3,18.8,28.3,32.8-9-2.3-15.5-4-23.7-6.1,5.9,14.2,11.4,27.5,16.8,40.8-27.6-29.7-47.1-64.2-63.2-105.2,2.9,47.1,41.8,127.1,101.6,212.9,8.6,12.3,18.4,25.3,27.7,37.8Z"/>
      <path class="st10" d="M744.8,610.5c5.3-.9,9.9-1.6,14.9-2.4-3.5-5.6-8.8-6.5-15.5-9.1,6-1.4,9.7,0,13.3-3.2-5.2-3.2-10.2-6.3-16.4-10.2,3.8-1.3,5.9-2,7.8-2.6-9.6-16.4-26.4-17.2-43.8-22.3,1.2,4.4,1.3,7.1,2.5,8.8,9.2,13.4,15.8,28.9,22.8,44.1,2.4,5.3,6.4,23.7,10.5,27.3,10.7,9.5,21,9.3,32.1.5-3.7-4.4-7.4-8.8-11.7-14-4.9.3-7.4,8.6-16.5-17Z"/>
      <path class="st10" d="M643.2,919.1c1.7,13.7,3.1,28.1,4.1,43,.6,8.3,1,16.4,1.3,24.4,3.7-1.7,7.6-3.7,11.6-6.1,16.4-9.9,27.3-22.5,34.3-32.6,1.1-5.4,2-10.9,2.8-16.4,2.4-16.2,3.7-32.8,4.6-51.1-21.4,14.1-40.1,26.6-58.7,38.9Z"/>
      <path class="st10" d="M511.4,979.2s0,0-.1,0c-11.3-5.8-19.6-11.7-26-21.6.5-3.8,1.2-7.6,2-11.3,1.3-6,2.9-11.9,4.5-17.9,3.6-13.1,7.2-26.2,8.1-39.7-6.9-8.2-14.2-14.1-26.3-16.6-10.9,12.8-15.8,21.6-23.6,31.9-2.7,3.6-5.8,7.4-9.5,11.6-.3.3-.6.6-.9,1-1.4-1.4-2.8-2.8-4.2-4.2,0-.7-.1-1.3-.2-2-.1-1.7-.2-3.4-.3-5,0-.8,0-1.6,0-2.4,0-1.8.1-3.7.2-5.5,0-.2,0-.4,0-.5.3-3.3.8-6.5,1.6-9.6.1-.6.3-1.2.5-1.8.4-1.3.8-2.7,1.2-4,.6-1.8,1.2-3.5,1.9-5.3.3-.9.7-1.7,1-2.5.2-.6.5-1.2.8-1.9,5.3-12,13.1-24.4,21.3-40.5,8.7,14.8,18.6,28.1,29.6,40.2.2.2.3.4.5.6h0c7.9,8.7,16.3,16.8,25.4,24.3.8,28.1-4.6,54.4-7.6,82.7Z"/>
      <path class="st10" d="M801.8,890.5c-6.1.2-9.7,1.5-14.4,5.5l33,84.9c2.9,2,5.8,3.7,8.8,5.2,14.3-4.5,27.6-8,39.8-10.7-30.2-23.3-49-54.4-67.2-84.9Z"/>
      <g>
        <path class="st10" d="M453.7,483.3s0,0-.1,0c-19.6,8-30.5,15.7-30.5,15.7-3.1,2.3-6.1,4.6-8.9,7-.5.4-1,.8-1.5,1.3,9.1-6,18.8-11,28.2-16.4,4.2-2.4,9.4-3.9,12.7-7.5Z"/>
        <path class="st10" d="M692.3,522.2c-6.7-14.8-17.9-26.3-29.1-31.8,0,0,0,0,0,0-.1,0-.2-.1-.3-.2-1.2-.5-2.4-1-3.5-1.5.8.3,1.5.7,2.3,1-.8-.3-1.5-.7-2.3-1-1.5-.6-3-1.3-4.5-1.9-41.4-17.2-79.4-22.7-112-22,14.9.5,29.6,2,44,4.6-14.5-2.6-29.2-4.1-44-4.6-3.4,0-6.8.2-10.2.4,12.2,0,24.2.8,36.1,2.2-11.9-1.4-23.9-2.1-36.1-2.2-13.9.9-26.8,2.8-38.4,5.4,0,0,0,0,0,0-11.9,2.6-22.6,5.9-31.8,9.2.6-.1,1.2-.3,1.8-.5-.6.2-1.2.3-1.8.5-3.1,1.1-6,2.3-8.8,3.4-3.3,3.6-8.6,5.1-12.7,7.5-9.4,5.5-19.1,10.4-28.2,16.4-13.3,11.5-22.8,23.8-29.6,36.2,0,0,0,0,0,0-6.9,12.6-10.9,25.2-12.9,37.2-1.3,7.3-1.8,14.3-1.9,20.9,0,0,0,0,0,0,0,3.8,0,7.5.3,11,.3,1.6.6,3.1.9,4.7,1,4.8,1.8,9.5,2.6,14.3.3,1.6.6,3.3.9,4.9.5,2.8,1,5.6,1.6,8.3,0,.2,0,.3,0,.5,0,0,0-.2,0-.3,1.5,4.9,2.7,7.6,2.7,7.6,0-11.8-4.6-23.2,1.8-34.3,1.2,2.8,2.3,5.3,3.6,8.4,6-13.2,9.4-26.2,11.2-39.7h0c0-.2,0-.3,0-.5-1.3.6-2.4,1.5-3.4,2.8,0,0,0,0,0,0,0,0,0,0,0,0-3.4,4-5.2,12.7-7.4,30.9.1.1.2.2.4.3-.1,0-.3-.2-.4-.3h0s0,0,0,0c2.2-18.2,4-26.9,7.4-30.9,1-1.3,2.1-2.2,3.4-2.8h0s0,0,0,0c0,0,0,0,0,0,.2,0,.4.2.5.3.3,0,.6-.1.9-.2-.3,0-.6.1-.9.2,2.6,1.9-.3,7.1,4.2,7.6,7.2-10.7.7-23.4,5.6-37.8h0c0-.3.2-.6.3-.8h0c.1-.3.2-.6.3-.8-.1.3-.2.6-.3.8.2.2.4.3.5.5h0c1.3,1.3,2.2,2.7,3,4.1-.7-1.4-1.7-2.7-3-4.1,0,.5,0,.9.1,1.4.6,6.2,1,10.9,1.5,15.2,0,0,0,.1,0,.2,0,0,0,.1,0,.2,0,1,.2,2,.3,3,0,0,0,0,0,0,0,0,0,0,0,0,0,0,.1,0,.2.1,1.7-3.7,2.7-7.1,2.4-10.5,1.3-6,.9-12.4,2.3-18.4.6-2.6.4-5.5.8-8.3-.4,2.7-.2,5.6-.8,8.3-1.4,5.9-1,12.4-2.3,18.4.2,3.4-.7,6.8-2.4,10.5,5.5,4,5.2-.4,5.6-4,1.4-12.5,2.7-25,4.1-37.5.4,0,.8-.1,1.2-.2,1.5,9.4,3,18.9,4.9,30.9,7.8-16.8,5.1-33.5,10.3-51.8-.2,0-.4-.1-.5-.1.2,0,.4,0,.5.1.4.1.9.3,1.2.5,1.7,8.8,2.9,14.9,4.5,22.8,8.9-11.4,8.3-23.2,10.2-34.8,12.3,7.7,18.6,24.4,37.3,22.1-4.2-8-13.3-11.4-15.7-21.2.2,0,.3,0,.5,0,0,0,0,0,0,0,12,9.1,21.4,20.1,37.8,21.3-12.7-14.2-12.8-14.5-15.5-26.6,12.4,14.9,25.3,29.5,48.5,30.8-6.3-10.7-16.6-17.5-19.4-29.6,14.7,11,20.6,32.5,44.5,32.3-5.4-14-14-24.4-15.5-37.7-.4-.2-.8-.4-1.2-.6.4.2.9.4,1.2.6.1,0,.2.1.3.2,10,6,13.4,17.4,20.2,26.4-6.7-9-10.2-20.4-20.2-26.4,8.1,12.6,16.2,25.2,24.5,38.1,4.4.6,8.6,1.1,15,2-6.5-16.4-12.2-30.8-17.9-45.1,12.8,13.3,19,31.1,33.6,45.7,3.2-18.8-8.9-31.8-8.8-50-3.3,5.9-2.8,11.3-1.3,16.5-1.6-5.2-2.1-10.6,1.3-16.5,0,0,0,0,0-.1,0,0,0-.2.2-.3,0,0,0,.2-.2.3,12,16.3,16,33.2,23.5,48.6,3.8-.5,7.7,1,9.8-4.5-3.6-11.9-7.5-24.5-12.5-40.8-1.6,6.5-.4,12.2,1.3,17.7-1.7-5.5-2.9-11.3-1.3-17.7,0,0,0,0,0,0,.5.3,1,.5,1.4.8,0,0,0,0,0,0,12.1,14.7,14.8,30.5,24.7,44.4,13-14.7-4.5-28.5.7-41.7,15.9,26.7,21.9,34.6,26.9,33.9-3.5-11.6-7.1-23.1-10.5-34.6,0,0,0,0,0,0,17.3,21.7,22,32.1,29.4,31.9ZM373.7,632.3c.2-2.2.2-4.6,0-7.2.2,2.5.3,4.9,0,7.2ZM376.3,618.1s0,0,0,0c0,0,0,0,0,0-.5.6-.9,1.1-1.3,1.7.4-.6.8-1.2,1.3-1.7,0-.1.2-.2.3-.4,0,.1-.2.2-.3.4ZM378,616.2c0,0,.1-.1.2-.2h0c0,0-.1.1-.2.2ZM378.7,616.8c1.8.5,2.4,1.9,3.3,3.1-.8-1.2-1.5-2.6-3.3-3.1ZM382.8,563h0s0,0,0,0c.5-1.2.9-2.5,1.3-3.7-.3,1.3-.7,2.5-1.3,3.7ZM394,586.3s0,0,0,0c0,0,0,0,0,0,0,0,0,0,0,0ZM398,585.5c-.4,0-.7,0-1,.1.3,0,.7-.1,1-.1h0ZM397.5,573.8c0-2.8.2-5.1.8-7.3-.6,2.3-.9,4.5-.8,7.3ZM397.9,579.6c-.1-1.4-.3-2.7-.3-3.9,0,1.2.2,2.5.3,3.9ZM398.6,585.5c-.2,0-.3,0-.4,0,.1,0,.3,0,.4,0h0ZM404,554.9c-.2.3-.3.5-.4.7h0s0,0,0,0c0,0,0,0,0,0-3.9,6.5-5.8,10.3-6.3,15.1.5-4.8,2.4-8.6,6.3-15.1,0,0,0,0,0,0,.1-.2.3-.5.4-.7,0,0,.1.1.2.2,0,0-.1-.1-.2-.2ZM405.1,554.6s0,0,0,0c0,.4,0,.8.1,1.2,0-.4,0-.8-.1-1.2ZM411.5,548.1c-1.3,5.3-1.1,11-1.9,16.4,0,0,0,0,0,0,.9-5.4.7-11.1,1.9-16.4.2-.7.3-1.4.3-2.1,0,.7-.2,1.4-.3,2.1ZM414.6,534.5c-.2.3-.3.6-.5.9.2-.3.3-.6.5-.9,0,0,0,0,0,0,0,0,0,0,0,0,.3-.3.6-.7,1-1-.4.3-.7.6-1,1ZM418.5,532.9c2.2,2,3.4,4.3,4.1,6.7-.7-2.4-1.9-4.7-4.1-6.7ZM423.1,551c0-2.4,0-4.9-.3-7.3.3,2.4.2,4.9.3,7.3,0,0,0,0,0,0ZM423.6,549.4s0,0,0,0h0c1.6-5.7,1.7-11.9,2.2-18.1-.6,6.2-.6,12.4-2.2,18.1,0,.2,0,.3,0,.5,0-.2,0-.3,0-.5ZM423.6,550.4h0c1.6-4.5,2-9.3,2.3-14.3-.4,5-.7,9.8-2.3,14.3ZM431.7,513.3s0,0,0,0c0,0,0,0,0,0,0,0,0,0,0,0,0,0,0,0,0,0,.1-.2.3-.4.4-.6h0c-.2.2-.3.4-.4.6ZM434.5,513.2c-.1-.6-.2-1.2-.4-1.8-.2.5-.3,1-.5,1.6.2-.5.3-1,.5-1.6.1.6.2,1.2.4,1.8.8.3,1.4.7,2,1.2-.5-.5-1.2-.9-2-1.2ZM440.8,525.5c-1-1.3-1.5-2.7-2-4.2.5,1.5,1,2.9,2,4.2,0,0,0,0,0,0ZM441.3,524.9c0,0,0-.1-.1-.2,0,0,0,.1-.1.2,0,0,0-.1.1-.2h0s0,0,0,0c0,0,0,.1.1.2h0ZM448.8,502.7s0,0,0,0c0,0,0,0,0,0-2.6,2.9-3.7,6.4-4.5,9.9.8-3.5,1.9-7,4.5-9.9.2-.2.4-.5.6-.7-.2.2-.4.5-.6.7ZM499.1,518s0,0,0,0c-.4-.2-.8-.3-1.1-.5.4.2.7.4,1.1.5ZM497.9,517.4h0s0,0,0,0c.1.2.2.3.3.5,0-.2-.2-.3-.3-.5-.2,0-.4-.2-.6-.3.2,0,.4.2.6.3ZM498.6,518.6s0,0,0,0c-1-.4-2-.9-3-1.5,1,.6,2,1.1,3,1.5ZM522.2,497.3s0,0,0,0c0,.2,0,.3,0,.5,0-.2,0-.3,0-.5ZM521.7,497.9c0,0,.1,0,.2,0,0,0,0,0-.2,0h0ZM470.9,502.6h0s0,0,0,0c0,0,0,0,0,0ZM470.8,503c0-.1,0-.2,0-.3,0,0,0,0,0,0h0s0,0,0,0c0,.1,0,.2,0,.3h0s0,0,0,0c0,0,0,0-.1,0,0,0,0,0,.1,0ZM449.9,501.6h0c4,.8,7.2,2.9,10,5.5-2.9-2.5-6-4.6-10-5.5ZM450.4,501h0c6.6,1.4,10.8,6.1,15.2,10.4-4.5-4.3-8.7-9-15.2-10.4ZM474,518.7c.4.2.9.4,1.3.6-.1-.2-.2-.3-.3-.5.1.2.2.3.3.5-.5-.2-.9-.4-1.3-.6ZM474.5,518.1c.5.2.9.4,1.4.6,0,0,0,0,0,0-.5-.2-.9-.4-1.4-.6,0,0,0,0,0,0h0c-2.5-3.4-5.3-6.7-4.7-11.8-.5,5.1,2.3,8.4,4.7,11.8ZM471,502.4s0,0,0,0c2,0,3.8.3,5.5.8-1.7-.5-3.5-.8-5.5-.8ZM492.2,494.1c-1.3,2.7-1.7,5.1-1.6,7.3-.1-2.2.3-4.6,1.6-7.3,0,0,0,0,0,0,0,0,0,0,0,0,14.2,10.3,23.9,25.7,41.1,30.3,0,0,0,0,0,0-17.2-4.5-26.9-20-41.1-30.3ZM533.9,523.8s0,0,0,0c-.4,0-.7-.2-1.1-.3.4.1.7.2,1.1.3ZM532.7,523.4s0,0,0,0c-4.1-5.9-10.7-10.9-11.5-19.2.8,8.3,7.3,13.2,11.5,19.2ZM522.1,498c-.6,3.1-.5,5.8.1,8.2-.6-2.4-.7-5.1-.1-8.2,0,0,0,0,0,0,0,0,0,0,0,0,1.4.4,2.7,1,3.9,1.6-1.2-.6-2.5-1.2-3.9-1.6ZM549.2,492.1c.1,0,.2.1.3.2,0-.2.1-.5.2-.7,0,.2-.1.5-.2.7,0,0,0,0,0,0h0c-.1,0-.2-.1-.3-.2-.8,2.4-1,4.5-1,6.6,0-2.1.2-4.3,1-6.6ZM540.1,512.5c5,6,10.1,11.8,18.1,14,0,0,0,0,0,0-8.1-2.1-13.1-8-18.1-14ZM558.8,525.9c-.2,0-.4-.1-.6-.2h0s0,0,0,0c-.2-2.2-.8-4.3-1.6-6.3.8,2,1.4,4.1,1.6,6.3.2,0,.4.1.6.2-.4-9-7.6-15.7-9.5-24.3,1.9,8.5,9.1,15.2,9.5,24.3ZM549.8,491.5s0,0,0,0c9.2,3.9,13.5,12,18.1,19.9-4.6-7.9-8.9-16-18.1-19.9ZM581.6,527.7c.2,0,.3.2.5.3,0,0,0,0,0,0-.2,0-.3-.2-.5-.3h0s0,0,0,0c1.1-12.1-8.2-21.4-9-33.6.8,12.3,10.1,21.5,9,33.6ZM573.9,485.4s0,0,0,0h0c0-.3.1-.5.2-.8,0,.3-.1.5-.2.8,15,9.1,17.2,26.5,28.2,36.6-11-10.1-13.2-27.5-28.2-36.6ZM602,522h0c0-.1,0-.2,0-.4,0,.1,0,.2,0,.4ZM602.6,521.4h0c-.1-.1-.2-.2-.4-.4.1.1.2.3.4.4ZM602.1,520.9c.1-2.5-.3-4.9-.9-7.2.7,2.4,1.1,4.8.9,7.2h0s0,0,0,0c-10.7-10.2-13-27.4-28-36.3,0,0,0,0,0,0,15.1,8.9,17.4,26.1,28,36.3ZM599.4,483.2c8.1,5.5,12.1,13.3,15.6,21.5-3.4-8.2-7.4-16-15.6-21.5h0ZM624.8,525.8c.2.2.3.5.4.7h0c-.2-.2-.3-.5-.4-.7h0s0,0,0,0c.1-1.9,0-3.7-.3-5.5.3,1.8.4,3.6.3,5.5ZM624.8,527.1s0,0,0,0c-9.8-14.2-10.5-32.8-25.7-43.2,0,0,0,0,0,0,15.3,10.4,15.9,29,25.7,43.2ZM619.2,486.1h0c0,.1,0,.3.1.4,0-.1,0-.3-.1-.4ZM619.4,487.3s0,0,0,0c.1,0,.2.1.3.2,0,0,0,0,0,0-.1,0-.2-.1-.3-.2ZM619.9,486.8h0s0,0,0,0c0,0,0,0,0,0ZM644.4,522.7c-2.4-3.1-4.2-6.7-5.9-10.3,1.7,3.6,3.4,7.1,5.9,10.3h0ZM644.7,521.7c0,.1,0,.3-.1.4,0-.1,0-.3.1-.4-7.4-9.8-8.9-23.1-19.3-31.5,10.4,8.4,11.9,21.6,19.3,31.5,0,0,0,0,0,0s0,0,0,0ZM645.4,488.8h0s0,0,0,0c0,0,0,0,0,0-2.2,2.7-3.1,5.5-3.2,8.2.2-2.7,1.1-5.5,3.2-8.2,0,0,0,0,0,0,.1-.2.2-.4.4-.5-.1.2-.2.4-.4.5ZM645.8,488.1h0c.8.5,1.6.9,2.3,1.5-.7-.5-1.5-1-2.3-1.5ZM642.7,486.7c-4.4-1.9-8.9-3.6-13.3-5.2,4.5,1.6,8.9,3.3,13.3,5.2,10.3,4.3,16.8,10.1,20.2,18.8-3.4-8.7-9.8-14.5-20.2-18.8ZM666.1,518.5c-.1-2.1-.3-4.1-.7-6,.3,1.9.5,3.9.7,6ZM665.5,517.7s0,0,0,0c0,.5,0,.9.1,1.4h0c0-.5,0-1-.1-1.4-4.1-5.1-6.1-11.1-8.7-16.6,2.6,5.5,4.6,11.6,8.7,16.6Z"/>
        <path class="st10" d="M468.1,458.1c.1,0,.2,0,.3-.1,0,0-.1,0-.3.1Z"/>
      </g>
      <path class="st10" d="M392.8,684.1l16.3,15.3-3.2,11s.3,2.4,4,1.5c3.7-.8,4,.7,4.4,2.5s-.8,23.2-1.1,24.9c-.2,1.7-1.7,9.5-2.1,10.5s-4.3.7-5.5.1-4.6-7-5.2-9.9c-.6-2.8-2.9-13.3-2.9-13.3,0,0-2.5-18.2-2.7-20s-2.1-22.7-2.1-22.7Z"/>
      <path class="st10" d="M600.7,585.5c-.5-.1-1-.2-1.5-.4-.2,0-.4,0-.5-.1-5.1-1.2-10.2-1.9-15.2-2.2-11.5.5-22.9,2.1-34.3,3.7-6.4,1.5-12.8,3.3-19.1,5.1-.4.1-.8.2-1.2.3-.5.1-1,.3-1.6.4-.4.8-.9,1.6-1.1,2.4,0,.3.3,1,.7,1.1,17,5.3,35,4.6,52.2,8.2,12.8,2.7,21.4-2,27.7-12.2-.1-4.4-3.6-4.9-6-6.5Z"/>
    </g>
    <g id="BLACK_FACE">
      <path d="M515.4,759c-6.2,3-12.3,6.8-18.4,11.2.1.3.2.7.3,1,0,0,0,0-.1,0-.2-.1-.3-.2-.5-.3-3.4,6.8-7.9,13.3-5.2,22.7.3-.6.6-1.1.9-1.7,0-.7,0-1.5,0-2.3,0-.5.2-.9.3-1.3,0,.4-.2.8-.3,1.3,0,.8,0,1.5,0,2.3.9-1.5,1.7-3.1,2.6-4.6h0c7.1-6.7,15-11.2,23.5-14.5,10.3-4,21.3-6.2,32.3-8.3,6.5-1.3,14.1.8,18.2-4.4-19.1-10.9-36.7-9.2-53.6-1.1ZM493.2,787.2c-.1,0-.2-.2-.3-.3h0c0,0,.2.2.3.3.1,0,.2.1.3.2.1,0,.3,0,.5,0-.2,0-.3,0-.5,0,0,0-.2,0-.3-.2ZM494.3,787.4c0,0,.2,0,.2,0,0,0-.2,0-.2,0Z"/>
      <path d="M496.4,797.6c.2.2.4.5.6.7.6.8.8,1.7.8,2.6,0-.9-.3-1.8-.8-2.6-.2,0-.3,0-.5,0,.2,1.6.3,3.1.5,4.7,0-.1.1-.3.3-.4.1,0,.3,0,.4-.1-.1.5-.3,1.1-.6,1.6,9,.7,17.3-.4,25.1-2.8,14-4.3,26.2-12.9,37.5-23.7-14.8,1.1-27.8,7.8-41.2,13.3-7.1,2.9-14.4,5.5-22,6.7Z"/>
      <path d="M410.6,671.7s17.3-15.3,26.7-19c9.4-3.7,15.5-6.9,30.6-4.4,0,0,4.9,26.5,4.9,45.7,0,0,1.2,18.6,2,21.6s-4.7.2-4.7.2c0,0-2.8-27.9-2.4-28.1s-2.8-4.4-6-5.4c-3.2-1-7.5-1.7-11.4-.7-4,1-6.6,1.8-10,2.2,0,0-4.3,6.9-4,10,.2,3.1.2,6.7,7.2,9.3l7,2.6s-.9,2-6.1,2.9c-5.2.9-3,9.6-3,9.6,0,0,.4,19.6.9,28.2.5,8.6-27.2-46.1-27.2-46.1l-4.3-28.5Z"/>
      <path d="M401.5,659.4s9.9-9.4,14.9-11.4c5-2,13.4-7.5,18.4-8.4,5-1,12.4-1,17.9-2,5.5-1,9.9-1,11.4-4,1.5-3,2.5-6.5,1-11.4-1.5-5-3.5-9.4-6.5-9.9s-15.9,2-19.9,5c-4,3-12.9,7-16.4,8.4s-24.9,11.9-24.9,11.9l-4,19.9,8,2Z"/>
      <path d="M497.6,597.7s45.2-14.2,50-15.6c4.8-1.3,18.2-4,28.8-4.8,10.6-.8,24.9-2.5,34.1-2,9.3.5,9.9,5.6,9.9,5.6l-9.8,10s-47.6,3.1-64,7.7c-16.4,4.6-49,11.4-49,11.4v-12.4Z"/>
      <path d="M527.1,599.7c.4-.2.8-.4,1.2-.5-.6.2.1,0,.2,0,.7-.3,1.4-.6,2.1-.8,1.5-.6,3.1-1.2,4.6-1.7,2.9-1,5.8-2,8.7-2.9,5.9-1.8,12-3.2,18.1-4.2,1.5-.3,2.9-.5,4.4-.7s.6,0,.9-.1c-.9.1.6,0,.6,0,.8-.1,1.6-.2,2.4-.3,3-.3,6.1-.6,9.2-.7,6.1-.3,12.2-.3,18.4.1,3.4.2,6.8.6,10.3,1-.9-.1.6,0,.6,0,.4,0,.9.1,1.3.2.9.1,1.8.3,2.7.4,1.8.3,3.5.6,5.3,1s4.9-.6,5.4-3.1-.7-4.9-3.1-5.4c-25.4-5.2-51.9-4.2-76.9,2.8-7.1,2-14.1,4.6-20.9,7.5s-2.8,4.2-1.6,6,3.8,2.6,6,1.6h0Z"/>
      <path d="M578.2,586.3c.7-.1,1.9-.3,2.3-.3s1.5-.2,2.1-.3c1.7-.2,3.4-.4,5.1-.6,3.4-.3,6.9-.6,10.3-.8,6.9-.3,13.8-.4,20.7,0s4.5-2.1,4.4-4.4c-.1-2.5-1.9-4.3-4.4-4.4-14.3-.6-28.7.2-42.9,2.3s-3.7,3.3-3.1,5.4,3,3.4,5.4,3.1h0Z"/>
      <path d="M536.9,600.7c11.3-2.6,22.8-4.7,34.3-6.3s-.4,0,.5,0,.6,0,1-.1c.7,0,1.4-.2,2.2-.3,1.4-.2,2.9-.3,4.3-.5,2.9-.3,5.8-.6,8.7-.9,5.8-.5,11.6-.9,17.4-1.1,6.6-.3,13.2-.4,19.9-.3,2.3,0,4.5-2,4.4-4.4-.1-2.4-1.9-4.4-4.4-4.4-23.8-.3-47.7,1.7-71.1,5.9-6.5,1.2-13,2.5-19.5,4-2.2.5-3.8,3.2-3.1,5.4.8,2.3,3,3.6,5.4,3.1h0Z"/>
      <path d="M492.6,723.5c-4.6,3-9.2,7-13.8,11.9-4.7-18.4-5.4-36.2-6.6-53.7-.6,1.9-1.3,3.8-2.4,5.8,0,0-.2,0-.2,0-.1.2-.2.4-.3.6-.5.2-1,.2-1.5.3,1,12.1,2.5,24.2,2.7,36.3.2,12.5,3.8,22.4,15.6,28.1,4-2.2,9.1-.1,12.5-3.6,4.6,3.5-3.3,7.8,2.1,11.1,2.1-5,5-9.1,8.4-12.7,8.5-9.2,20.4-15,32.6-21.5.3-.4.5-.8.7-1.2-18.6-11.1-34.6-11.3-49.8-1.3Z"/>
    </g>
    <g id="SHIELD">
      <path d="M394.4,766.6c1.3,5.9,7.2,10.5,13.3,10.1,2.5-.1,4-2.7,2.8-5-1.3-2.4-3-4.6-5.1-6.3s-2-1.2-3.2-.8-2.1,1.2-2.3,2.3c-.2,1.6-.3,3.1,0,4.8s.8,2.6,1.6,3.7c.9,1.4,3,2.2,4.5,1.2s2.2-3,1.2-4.5c-.3-.4-.5-.9-.7-1.3l.3.8c-.3-.7-.5-1.5-.6-2.3v.9c0-.7,0-1.4.1-2.2v.9c-.1,0-.1-.1,0-.2l-5.5,1.5c1,.9,2,1.8,2.8,2.9l-.5-.7c.7.9,1.2,1.8,1.7,2.7.9-1.7,1.9-3.3,2.8-5-.6,0-1.1,0-1.7,0h.9c-.9,0-1.7-.2-2.5-.6l.8.3c-.8-.3-1.5-.8-2.2-1.3l.7.5c-.7-.6-1.4-1.2-1.9-1.9l.5.7c-.5-.7-.9-1.3-1.2-2.1l.3.8c-.2-.5-.4-1.1-.5-1.6-.4-1.7-2.4-2.8-4.1-2.3s-2.7,2.2-2.3,4.1h0Z"/>
      <g>
        <path class="st4" d="M355.6,637.9l41.2,145.1s47.9-108.2,310.2-141.9l-26.2-142.6c-101.1-50.4-211.8-38.9-273.8,24.4-38.6,39.4-48.5,88.7-51.5,115Z"/>
        <g>
          <path d="M718.9,648s-4.4-80.2-18.1-126.3c-5.2-17.7-18.1-32.2-35.3-39.1-93.1-37.6-219.3-26.8-274.1,39-12.5,15-47.2,64-41.4,110.4,0,0,30.3,185.7,48.2,177.6,17.9-8,30-18,39.7-19l27.4,34.4-13.5-28.8s-11.8-15.2-11.9-33.8c-5.6,1.8-11.3,3.3-17.3,4.8-2,4.2-6.1,7.4-12.2,7.4s-6.3-1-8.4-2.7c-3.7-1.6-6-4.8-7.1-8.4,0,0,0,.1-.1.2l-26-124.5s0,0,0-.1c-.8-1-1.3-2.1-1.5-3.4-2.1-13.4-.9-26.9,2.6-40,3.5-12.9,9.8-23.8,16.4-35.3,5.9-10.1,11.6-20.8,21.3-27.8-.6-3.6.6-7.4,4.6-9.9,9.1-5.5,18.6-10.4,28.2-14.9,12.7-7.9,26.7-13.7,40.7-17.3,8.9-3.9,18-7.1,27.7-8.4,12.2-1.7,24.6-1.4,36.8.2,6.2.8,12.3,2.2,18.3,3.6,6.2-.2,12.4-.3,18.6-.4,11,0,23.1-.7,33.7,2.6,8.7,2.7,16.3,7.6,23.9,12.3,3,1.8,6,3.7,9,5.1,2.2.7,4.4,1.5,6.6,2.3,2,.4,4.1.6,6.2.5,7.2-.4,10.4,5.7,9.4,11.3,3.5,16.6,13.3,64.1,19.9,108.9-.1,0-.3,0-.4,0,4,6.5,5.1,15.5,3.3,22.9,8.3-1.3,16.5-2.5,24.5-3.5Z"/>
          <path class="st10" d="M396.8,768.5c-.6-2.2-.9-4.3-.9-6.4-.3.5-.7,1-1,1.6l-28.4-124.7c4.1-27.4,8.5-70.9,35.6-100.6,55.7-61,166-76.8,268.7-25,2.4,11.2,13.5,65.9,20.7,115.1,0,0-.2,0-.3,0,3.6,3.6,5.1,4.1,3.8,9.3,4-.7,8-1.4,12.1-2.1,0,0-9.5-100.6-26.2-137.3,0,0-135.1-70.7-252.1-.8-87.3,52.1-65.9,137.6-65.9,137.6l-.2,10.3s16.7,100.1,27,139"/>
          <path d="M697.8,641.3c-8.1-56.4-21.7-128.8-21.8-129.4l-.5-2.2-2-.3c-98.2-53.1-206.6-43.2-264.6,17.4-42.4,37.4-43.4,83.8-45.4,109.1l-.5.6-.6.6.5,2.4,29.4,151.5,3.7-7c22.2-41.4,80.8-78.5,169.6-107.4,67.4-22,129-31.5,129.6-31.6.8-1.2,1.7-2.5,2.5-3.7ZM565.8,670.4c-86.9,28.3-142,61.4-167.5,102.1l-29.5-133.3c1.4-28.7,8.9-67.5,36-99.3,53-62.1,162.2-75.4,265.8-24.2,2.4,11.2,14.6,74.6,22.5,123.4-13.2,2.2-68,12-127.4,31.3Z"/>
        </g>
      </g>
      <path class="st10" d="M703.7,636.4l9.5-1.7,5.5.5,25.8-3.8,33.3-1.3,8.8-5,3.6-10.7-12-50.3-10.2-7.7-28.5-19.4-28.8-14.5-1.3-13.2-41.5-19.9-19.6-.2,28.8,14.7,8,34.3,14.9,76.3M765.6,602c-.3,4.1-.7,3.9-2.4,3.7s-25,2.5-27.5,2.3c-2.5-.2-2.5-13.1-2.5-16.1s-1.6-14.8-1.8-20.5c-.3-8.2-2.2-7.6,1.6-7.6,0,0,14.7,4.6,17.5,5.8,2.8,1.2,10,5.5,10.7,8.8.7,3.2,4.7,19.6,4.4,23.7Z"/>
      <path d="M691.9,535.6c-.3.3-.6.7-.9,1.1s-.1.2-.2.3c-.2.4-.4.9-.5,1.3s0,.2,0,.3c-.2,1.2-.3,2.3,0,3.6s0,.2.1.3c.2.4.3.9.6,1.3s.1.2.2.3c.3.4.6.8.9,1.1s.9.8,1.3,1.1.2.1.3.2c.4.2.9.4,1.3.5s0,0,.1,0c.4,0,.9.1,1.3.2s.2,0,.4,0c1.2-.1,1.7-.3,2.8-.8s1-.7,1.4-1,.2-.2.3-.2c.3-.4.6-.8.9-1.2s.6-1.1.8-1.6,0-.2.1-.3c.1-.5.2-1,.2-1.5s0-1.2-.2-1.8,0-.2-.1-.3c-.2-.4-.3-.9-.6-1.3s-.5-.8-.8-1.1-.1-.2-.2-.2c-.4-.4-.9-.7-1.4-1s-1.1-.5-1.6-.6-1.2-.2-1.8-.2-1,.1-1.4.2-.2,0-.3,0-.2,0-.3.1c-.4.2-.9.3-1.3.6s-.2.1-.3.2c-.4.3-.8.5-1.1.9s-.6.7-.8,1.1-.1.2-.2.3c-.2.4-.4.9-.5,1.3s-.2,1.1-.2,1.5c0,.6,0,1.2.2,1.8s.4,1.2.7,1.7.3.5.5.7.4.5.6.7.2.2.3.2c.4.3.7.6,1.2.9s.9.4,1.3.6.2,0,.3.1c.5.1,1,.2,1.4.2s.3,0,.4,0c.4,0,.9,0,1.3-.2s.1,0,.2,0,.1,0,.1,0c.4-.1.8-.3,1.2-.5,1-.5,1.9-1.4,2.4-2.4s.4-.8.5-1.3,0-.2,0-.3c.1-.5.1-.9.2-1.4s0-.2,0-.3,0-.2,0-.3c0-.5,0-1-.2-1.4s0-.2,0-.3c-.2-.4-.3-.9-.6-1.3s0-.2-.1-.3c-.3-.4-.5-.8-.8-1.1s-.1-.1-.2-.2c-.3-.3-.6-.5-1-.8s0,0-.1,0c-.4-.2-.8-.4-1.3-.6s-.2,0-.3,0c-.6-.2-1.2-.2-1.8,0-.6,0-1.1.2-1.6.5-.5.3-.9.7-1.2,1.1-.4.4-.7.9-.8,1.5l-.2,1.2c0,.8.2,1.5.6,2.2l.7.9c.5.5,1.2.9,1.9,1.1.1,0,.2,0,.3,0l-1.1-.4c.1,0,.3.1.4.2l-.9-.7c.1.1.2.2.3.3l-.7-.9c.1.2.2.3.3.5l-.4-1.1c0,.2.1.4.2.7l-.2-1.2c0,.2,0,.5,0,.7l.2-1.2c0,.2,0,.4-.2.6l.4-1.1c0,.1-.1.3-.2.4l.7-.9c0,.1-.2.2-.3.3l.9-.7c-.1,0-.2.2-.4.2l1.1-.4c-.1,0-.3.1-.4.1l1.2-.2c-.2,0-.3,0-.5,0l1.2.2c-.2,0-.4,0-.6-.2l1.1.4c-.2,0-.4-.2-.5-.3l.9.7c-.2-.1-.3-.3-.5-.5l.7.9c-.1-.2-.2-.3-.3-.5l.4,1.1c0-.2-.1-.3-.1-.5l.2,1.2c0-.2,0-.3,0-.5l-.2,1.2c0-.2,0-.3.1-.4l-.4,1.1c0-.1.1-.3.2-.4l-.7.9c.1-.1.2-.2.3-.3l-.9.7c.2-.1.3-.2.5-.3l-1.1.4c.2,0,.5-.2.7-.2l-1.2.2c.2,0,.5,0,.7,0l-1.2-.2c.2,0,.4,0,.6.2l-1.1-.4c.2,0,.3.2.5.3l-.9-.7c.1,0,.2.2.3.3l-.7-.9c0,.1.2.2.2.4l-.4-1.1c0,.2.1.3.1.5l-.2-1.2c0,.2,0,.4,0,.6l.2-1.2c0,.2,0,.4-.2.6l.4-1.1c0,.2-.2.4-.4.6l.7-.9c-.1.2-.3.3-.5.5l.9-.7c-.2.1-.3.2-.5.3l1.1-.4c-.2,0-.4.1-.5.2l1.2-.2c-.2,0-.3,0-.5,0l1.2.2c-.2,0-.3,0-.5-.1l1.1.4c-.2,0-.3-.2-.5-.3l.9.7c-.2-.1-.3-.3-.4-.4l.7.9c-.1-.2-.2-.4-.3-.6l.4,1.1c0-.2-.2-.5-.2-.7l.2,1.2c0-.2,0-.5,0-.7l-.2,1.2c0-.2,0-.4.2-.6l-.4,1.1c0-.2.2-.3.3-.5l-.7.9c0,0,.1-.1.2-.2.4-.4.7-.9.9-1.4.3-.5.4-1.1.4-1.7,0-.6-.1-1.2-.4-1.7-.2-.5-.5-1-.9-1.4-.8-.8-1.9-1.3-3.1-1.3l-1.2.2c-.7.2-1.4.6-1.9,1.1h0Z"/>
      <path d="M694.7,570.9c-.2.7-.3,1.5-.4,2.3s0,1.2.1,1.8.2,1.2.4,1.7.6,1.5,1,2.1c.4.7.9,1.2,1.6,1.6.7.4,1.4.6,2.2.6.6,0,1.2-.1,1.8-.3s1.1-.4,1.7-.7.4-.2.6-.4c.5-.3,1-.7,1.4-1.1s.7-.9,1-1.3.5-1.1.7-1.6.1-.4.2-.6c0-.5.2-1,.2-1.4s0-.2,0-.3c0-1.1-.3-2.3-1-3.2s-1.3-1.7-2.3-2.2-.9-.5-1.4-.6-1.1-.2-1.6-.3-1.5,0-2.1.2-1.6.6-2.4,1.2-.6.4-.8.7c-.3.4-.7.8-.9,1.3s-.5,1-.6,1.5c-.2,1.2-.2,1.6,0,2.8s0,.4.1.5c.2.5.4,1.1.7,1.5.7,1,1.3,1.7,2.4,2.3s1,.5,1.5.7,1.2.2,1.7.3c1.1,0,2.2-.3,3.2-.8s1.7-1.3,2.2-2.1.5-1,.7-1.5.1-.4.1-.6c0-.5.2-1.1.2-1.7s0-1.1-.2-1.7c-.3-1.1-.8-2-1.6-2.9s-1.7-1.4-2.8-1.7c-.6-.2-1.2-.2-1.8,0-.6,0-1.1.2-1.6.5-.5.3-.9.7-1.2,1.1-.4.4-.7.9-.8,1.5-.3,1.1-.2,2.4.4,3.4l.7.9c.5.5,1.2.9,1.9,1.1,0,0,0,0,.1,0l-1.1-.4c.1,0,.3.1.4.2l-.9-.7c.1,0,.2.2.3.3l-.7-.9c.1.2.2.3.3.5l-.4-1.1c0,.2.1.4.2.7l-.2-1.2c0,.2,0,.5,0,.7,0-.4.1-.8.2-1.2,0,.2,0,.4-.2.7l.4-1.1c0,.2-.2.3-.3.4l.7-.9c0,.1-.2.2-.3.3l.9-.7c-.1,0-.3.2-.4.2l1.1-.4c-.1,0-.3,0-.4.1l1.2-.2c-.2,0-.4,0-.5,0l1.2.2c-.2,0-.4,0-.6-.2l1.1.4c-.2,0-.4-.2-.5-.3l.9.7c-.2-.2-.4-.3-.5-.5l.7.9c-.1-.2-.2-.3-.3-.5l.4,1.1c0-.2-.1-.4-.2-.6l.2,1.2c0-.2,0-.3,0-.5l-.2,1.2c0-.2,0-.3.1-.5l-.4,1.1c0-.1.1-.3.2-.4l-.7.9c0-.1.2-.2.3-.3l-.9.7c.2-.1.3-.2.5-.3l-1.1.4c.2,0,.4-.1.6-.2l-1.2.2c.3,0,.5,0,.8,0l-1.2-.2c.2,0,.5,0,.7.2l-1.1-.4c.2,0,.3.2.5.3l-.9-.7c.1.1.3.2.4.4l-.7-.9c0,.1.2.2.2.4l-.4-1.1c0,.2.1.4.2.6l-.2-1.2c0,.2,0,.3,0,.5l.2-1.2c0,.2,0,.5-.2.7l.4-1.1c-.1.2-.2.4-.4.6l.7-.9c-.2.3-.4.5-.7.7l.9-.7c-.3.2-.5.3-.8.5l1.1-.4c-.3.1-.6.2-.9.2l1.2-.2s0,0-.1,0l3.8,2.2c-.2-.3-.3-.6-.5-.9l.4,1.1c-.2-.4-.3-.9-.4-1.3l.2,1.2c0-.5,0-.9,0-1.4l-.2,1.2c0-.3.1-.6.2-1,.2-.6.2-1.2,0-1.8,0-.6-.2-1.1-.5-1.6-.3-.5-.7-.9-1.1-1.2-.4-.4-.9-.7-1.5-.8-1.1-.3-2.4-.2-3.4.4l-.9.7c-.5.5-.9,1.2-1.1,1.9h0Z"/>
      <path d="M707.7,513.2c1.7,30.9,3.5,61.7,5.2,92.6.5,8.6,1,17.3,1.5,25.9.1,2.3,3.6,2.3,3.5,0-1.7-30.9-3.5-61.7-5.2-92.6-.5-8.6-1-17.3-1.5-25.9-.1-2.3-3.6-2.3-3.5,0h0Z"/>
      <path d="M717.5,642.5c.1-4.1.3-8.3.4-12.4s-.8-1.8-1.8-1.8-1.7.8-1.8,1.8c-.1,4.1-.3,8.3-.4,12.4s.8,1.8,1.8,1.8,1.7-.8,1.8-1.8h0Z"/>
      <path d="M710.1,525.3c13.5,7,26.6,14.7,39.8,22.2,4.7,2.7,9.4,5.4,14.1,8.1s2.1,1.3,3.1,1.9,2.1,1.4,2.9,2.1c2,1.6,4.1,3.7,5.4,5.6,3.7,5.3,4.3,12,5.4,18.5,1,6.4,2.4,12.8,3.5,19.2.3,1.9.6,3.9.9,5.8.5,3,1.2,6.1,1.3,8.9,0,1.5,0,2.4-.4,3.7-.1.4-.3.8-.7,1.4s-.8,1-1.4,1.4c-2.6,2-6.4,2.7-9.6,3.2-8.2,1.1-16.5,1.7-24.8,2.6s-16.9,1.7-25.3,2.6-4.2.4-6.3.6-2.9,1.2-2.9,2.9,1.3,3.1,2.9,2.9c17.5-1.8,35.1-3.5,52.6-5.4,7-.7,17-1.6,20.4-9,1.5-3.2,1.4-6.6.9-10.1-.4-3-1-6-1.5-9-.9-5.7-2.2-11.3-3.2-17-.6-3.3-1-6.6-1.6-9.9-.6-3.6-1.1-7.3-2.4-10.7-4.4-11-14.9-16.3-24.5-21.9-13.3-7.7-26.5-15.4-40-22.6-1.9-1-3.8-2-5.7-3-3.3-1.7-6.2,3.3-2.9,5h0Z"/>
      <path d="M711.1,508.7c-6-5.3-13.2-9.3-20.3-13-7.9-4.1-16-7.8-24.2-11.3s-7.7-3.3-11.5-5c-1.7-.8-3.8-.5-4.8,1.3-.9,1.5-.5,4.1,1.3,4.8,15.2,6.6,30.8,12.9,45,21.5s3.7,2.3,5.4,3.5c.4.3.8.6,1.2.9s.3.2.5.3.8.6.4.3.1,0,.2.2c.2.2.4.3.6.5.4.3.7.6,1.1,1,1.4,1.3,3.6,1.4,5,0s1.4-3.7,0-5h0Z"/>
      <path d="M708.9,511.5c.2,1.4.4,2.9.7,4.3s.5.9.8,1.1.9.3,1.4.2.8-.4,1.1-.8l.2-.4c0-.3,0-.6,0-.9-.2-1.4-.4-2.9-.7-4.3s-.5-.9-.8-1.1-.9-.3-1.4-.2-.8.4-1.1.8l-.2.4c0,.3,0,.6,0,.9h0Z"/>
      <path d="M719.7,647c1.8-3.9,2.3-8.2,1.2-12.4-.2-.9-1.3-1.5-2.2-1.2s-1.5,1.2-1.2,2.2c.4,1.6.5,3.2.3,5.1s0,.5-.1,1-.2.9-.3,1.3c-.2.8-.5,1.7-.8,2.3s-.3,1.9.6,2.4,2,.3,2.4-.6h0Z"/>
      <path d="M710.8,507.2c-5.7-5.8-13.1-10.2-20.3-14-8.3-4.4-17-8.2-25.8-11.4-4.3-1.5-8.6-2.9-13-4-1.8-.5-3.8.6-4.3,2.5-.5,1.8.6,3.9,2.5,4.3,3.7.9,7.4,2.1,11,3.3s4.2,1.5,6.3,2.3,1.9.8,2.9,1.1,2,.8,2.8,1.1c8.2,3.5,16.3,7.5,23.9,12.4.9.6,1.9,1.2,2.8,1.9s.8.6,1.3.9.4.3.6.5c.6.4-.4-.3.2.2,1.5,1.2,2.9,2.4,4.3,3.8,3.2,3.2,8.2-1.7,5-5h0Z"/>
      <path d="M729.7,565.2c1.1,14.3,1.7,28.7,3.1,43,0,.8.7,1.7,1.6,1.6,7.4-.8,14.9-1.7,22.3-2.2,1.8-.1,3.7-.2,5.5-.3s3.4.2,4.4-1c1.4-1.8.3-5.2,0-7.2-.9-4.6-1.8-9.2-3.2-13.7-.9-2.7-1.2-5.7-2.3-8.3-1.2-3-3.5-5-6.4-6.4-3.6-1.7-7.5-3.1-11.3-4.4-3.9-1.3-7.8-2.5-11.7-3.6s-2.9,2.6-.9,3.1c6.3,1.8,12.6,3.8,18.7,6.2s5.9,2.1,7.7,4.5c1.7,2.2,1.9,5.5,2.6,8.1s1.1,3.6,1.6,5.4c.5,2.2.9,4.4,1.4,6.7.5,2.2,1,4.4,1.2,6.6s0,1.1,0,1.1l.4-.4c-.3,0-.5,0-.8,0-.3,0-.5,0-.8,0-1.7,0-3.4.2-5.1.3-7.8.5-15.6,1.4-23.4,2.3l1.6,1.6c-1.4-14.3-2-28.6-3.1-43-.2-2.1-3.4-2.1-3.3,0h0Z"/>
    </g>
  </g>
</svg>